<?xml version="1.0" encoding="UTF-8" standalone="no"?>
<!-- Created with Inkscape (http://www.inkscape.org/) -->

<svg
   width="300"
   height="300"
   viewBox="0 0 79.375005 79.374998"
   version="1.1"
   id="svg8360"
   xmlns:inkscape="http://www.inkscape.org/namespaces/inkscape"
   xmlns:sodipodi="http://sodipodi.sourceforge.net/DTD/sodipodi-0.dtd"
   xmlns="http://www.w3.org/2000/svg"
   xmlns:svg="http://www.w3.org/2000/svg">
  <sodipodi:namedview
     id="namedview8362"
     pagecolor="#ffffff"
     bordercolor="#000000"
     borderopacity="0.25"
     inkscape:showpageshadow="2"
     inkscape:pageopacity="0.0"
     inkscape:pagecheckerboard="0"
     inkscape:deskcolor="#d1d1d1"
     inkscape:document-units="mm"
     showgrid="false" />
  <defs
     id="defs8357" />
  <g
     inkscape:label="圖層 1"
     inkscape:groupmode="layer"
     id="layer1">
    <path
       style="display:inline;fill:none;fill-opacity:0.195531;stroke:#000000;stroke-width:0.529167;stroke-linecap:round;stroke-linejoin:round;stroke-dasharray:none;stroke-opacity:1;paint-order:normal"
       d="m 30.890701,66.378242 -1.504089,-3.3133 1.58163,-5.10435 -0.773752,-3.09867 2.070527,-5.78507 4.828495,0.17244 3.767688,-3.99564 2.35454,2.09163 3.59613,-1.26074 3.8023,2.81794 2.46595,-1.81353 2.57167,0.62768 -2.06038,-5.18596 0.74876,-4.00212 2.02466,-2.67929 1.16759,-4.92227 -0.48134,-4.11876 2.19568,-2.47635 0.91611,-3.70071 3.49199,-2.7149 3.851,-0.10868 0.27195,-2.19373 -3.34099,-1.73252 -0.23148,-2.83976 2.27227,-1.1498503 -0.26879,-2.11231 -1.79759,-1.69459 -3.82692,-0.36444 -3.19386,1.80111 -2.15054,1.29844 -0.76568,2.4884503 -6.22115,5.16834 -2.29704,0.28713 -1.33994,1.53136 -1.627066,-1.43565 -1.24423,0.76568 0.09571,7.36967 -6.02973,8.42248 -6.891115,6.12544 -0.957101,4.01981 -4.498369,1.33994 -9.828356,-1.00064 5.170968,14.98234 -1.797524,3.93218 6.414711,8.9816 4.319267,2.83009 z"
       id="path8285"
       sodipodi:nodetypes="ccccccccccccccccccccccccccccccccccccccccccccccc"
       inkscape:label="K" />
  </g>
</svg>
